<?xml version="1.0" encoding="UTF-8" standalone="no"?>
<svg
   height="24px"
   viewBox="0 -960 960 960"
   width="24px"
   fill="#0000F5"
   version="1.1"
   id="svg1744"
   sodipodi:docname="attractions_pin_24dp_0000F5_FILL0_wght400_GRAD0_opsz24.svg"
   inkscape:version="1.1.2 (0a00cf5339, 2022-02-04)"
   xmlns:inkscape="http://www.inkscape.org/namespaces/inkscape"
   xmlns:sodipodi="http://sodipodi.sourceforge.net/DTD/sodipodi-0.dtd"
   xmlns="http://www.w3.org/2000/svg"
   xmlns:svg="http://www.w3.org/2000/svg">
  <defs
     id="defs1748" />
  <sodipodi:namedview
     id="namedview1746"
     pagecolor="#ffffff"
     bordercolor="#666666"
     borderopacity="1.0"
     inkscape:pageshadow="2"
     inkscape:pageopacity="0.0"
     inkscape:pagecheckerboard="0"
     showgrid="false"
     inkscape:zoom="0.32685275"
     inkscape:cx="564.47438"
     inkscape:cy="884.19022"
     inkscape:window-width="1920"
     inkscape:window-height="1003"
     inkscape:window-x="0"
     inkscape:window-y="40"
     inkscape:window-maximized="1"
     inkscape:current-layer="svg1744" />
  <path
     d="M 24151.499,58179.992 C 16309.795,51507.237 10452.87,45309.367 6580.7238,39586.385 2708.5777,33863.401 772.50476,28566.599 772.50476,23695.973 772.50476,16390.039 3122.5811,10569.643 7822.7328,6234.7876 12522.885,1899.9327 17965.807,-267.49524 24151.499,-267.49524 c 6185.692,0 11628.616,2167.42794 16328.768,6502.28284 4700.152,4334.8554 7050.228,10155.2514 7050.228,17461.1854 0,4870.626 -1936.074,10167.428 -5808.22,15890.412 -3872.146,5722.982 -9729.072,11920.852 -17570.776,18593.607 z"
     id="path1742"
     sodipodi:nodetypes="csssssssc"
     style="fill:#ffffff;fill-opacity:1;stroke:#f70404;stroke-width:1242.01;stroke-miterlimit:4;stroke-dasharray:none;stroke-opacity:1" />
  <path
     style="fill:#050bf9;fill-opacity:1;stroke:#f70404;stroke-width:0;stroke-linecap:round;stroke-linejoin:round;stroke-miterlimit:4;stroke-dasharray:none;stroke-opacity:1;stop-color:#000000"
     id="path8217"
     sodipodi:type="arc"
     sodipodi:cx="24273.139"
     sodipodi:cy="23491.971"
     sodipodi:rx="18543.402"
     sodipodi:ry="18543.402"
     sodipodi:start="0"
     sodipodi:end="6.2795716"
     sodipodi:open="true"
     sodipodi:arc-type="arc"
     d="M 42816.541,23491.971 A 18543.402,18543.402 0 0 1 24289.891,42035.365 18543.402,18543.402 0 0 1 5729.7666,23525.476 18543.402,18543.402 0 0 1 24222.881,4948.6365 18543.402,18543.402 0 0 1 42816.42,23424.96" />
  <path
     d="m 16800.221,35016.403 1607.162,-3630.994 q -416.672,-327.386 -803.581,-639.89 -386.908,-312.504 -744.056,-669.652 -238.098,89.288 -461.314,133.932 -223.218,44.642 -491.078,44.642 -982.155,0 -1681.568,-699.414 -699.414,-699.412 -699.414,-1681.568 0,-595.244 252.979,-1086.32 252.98,-491.078 699.414,-818.464 -238.098,-684.532 -327.384,-1383.944 -89.288,-699.414 -89.288,-1473.232 0,-773.817 89.288,-1473.231 89.286,-699.412 327.384,-1383.945 -446.434,-327.385 -699.414,-818.462 -252.979,-491.077 -252.979,-1086.322 0,-982.156 699.414,-1681.569 699.413,-699.413 1681.568,-699.413 267.859,0 491.077,44.643 223.217,44.644 461.315,133.931 982.154,-1071.441 2247.05,-1785.736 1264.896,-714.295 2693.486,-1071.441 148.81,-892.868 818.462,-1488.113 669.65,-595.246 1562.517,-595.246 892.868,0 1562.518,610.126 669.652,610.127 818.462,1473.232 1428.59,357.147 2693.486,1056.56 1264.896,699.414 2247.05,1741.093 238.098,-89.287 446.434,-133.93 208.338,-44.643 446.434,-44.643 982.154,0 1681.568,699.412 699.412,699.413 699.412,1681.568 0,595.246 -238.096,1056.561 -238.1,461.315 -654.77,788.7 238.096,714.294 327.384,1458.352 89.286,744.056 89.286,1517.873 0,773.818 -89.286,1502.994 -89.286,729.176 -327.384,1413.708 416.67,327.384 654.77,788.7 238.096,461.314 238.096,1056.56 0,982.156 -699.412,1681.568 -699.414,699.414 -1681.568,699.414 -238.096,0 -446.434,-44.644 -208.336,-44.644 -446.434,-133.93 -357.146,357.148 -729.176,699.412 -372.028,342.268 -818.462,669.652 l 1547.638,3571.47 h -2202.406 l -1130.966,-2619.078 q -416.672,178.572 -803.58,312.504 -386.912,133.93 -803.582,223.216 -148.81,863.106 -818.462,1473.232 -669.652,610.126 -1562.52,610.126 -892.867,0 -1562.517,-595.244 -669.65,-595.246 -818.462,-1488.114 -446.434,-89.286 -848.224,-223.216 -401.79,-133.932 -818.462,-312.504 l -1130.967,2619.078 z m 2261.931,-5178.632 1845.262,-4166.718 q -416.672,-535.72 -654.77,-1190.49 -238.098,-654.77 -238.098,-1369.064 0,-1696.447 1235.134,-2931.581 1235.132,-1235.134 2931.581,-1235.134 1696.45,0 2931.584,1235.134 1235.132,1235.134 1235.132,2931.581 0,714.294 -252.978,1398.826 -252.98,684.532 -699.414,1220.254 l 1845.26,4107.192 q 267.86,-238.098 520.84,-431.554 252.978,-193.454 491.078,-461.314 -148.812,-238.098 -193.456,-520.84 -44.644,-282.742 -44.644,-550.602 0,-952.394 654.772,-1636.924 654.77,-684.534 1607.16,-744.056 178.574,-595.246 267.862,-1175.61 89.286,-580.364 89.286,-1205.372 0,-625.007 -89.286,-1235.131 -89.288,-610.126 -267.862,-1205.373 -952.392,-59.525 -1607.16,-744.056 -654.772,-684.532 -654.772,-1636.925 0,-267.86 74.406,-520.839 74.408,-252.979 163.694,-491.077 -863.106,-863.106 -1904.786,-1458.351 -1041.678,-595.246 -2202.406,-922.63 -327.386,505.958 -833.344,788.7 -505.958,282.741 -1130.966,282.741 -625.007,0 -1130.965,-282.741 -505.958,-282.742 -833.342,-788.7 -1220.252,327.384 -2261.934,937.511 -1041.678,610.126 -1904.784,1502.994 89.287,238.098 163.694,491.077 74.404,252.98 74.404,520.84 0,952.392 -625.008,1622.043 -625.006,669.651 -1577.398,758.938 -178.573,595.246 -267.861,1175.61 -89.286,580.364 -89.286,1205.369 0,625.008 89.286,1205.372 89.288,580.364 267.861,1175.61 952.392,59.524 1577.4,744.056 625.006,684.532 625.006,1636.924 0,267.86 -44.642,520.84 -44.643,252.98 -193.456,491.078 238.098,267.86 491.078,491.078 252.979,223.216 520.838,461.314 z m 1785.738,1011.916 q 327.384,148.812 669.65,267.86 342.266,119.05 699.414,208.336 327.384,-505.958 833.342,-788.7 505.96,-282.742 1130.965,-282.742 625.008,0 1130.966,282.742 505.96,282.742 833.344,788.7 357.148,-89.286 669.65,-208.336 312.504,-119.048 639.888,-267.86 l -1726.21,-3869.094 q -357.148,148.812 -744.056,223.218 -386.91,74.406 -803.582,74.406 -446.433,0 -848.223,-89.288 -401.79,-89.286 -758.938,-267.86 z m 3333.371,-5952.452 q 714.294,0 1250.016,-505.958 535.72,-505.958 535.72,-1279.778 0,-714.293 -535.72,-1250.013 -535.722,-535.722 -1250.016,-535.722 -773.817,0 -1279.775,535.722 -505.96,535.72 -505.96,1250.013 0,773.82 505.96,1279.778 505.958,505.958 1279.775,505.958 z m 0,-1785.736 z"
     id="path872"
     style="fill:#ffffff;fill-opacity:1;stroke-width:29.7622" />
</svg>
